<?xml version="1.0" encoding="UTF-8"?>
<!DOCTYPE svg PUBLIC "-//W3C//DTD SVG 1.1//EN" "http://www.w3.org/Graphics/SVG/1.1/DTD/svg11.dtd">
<svg xmlns="http://www.w3.org/2000/svg" version="1.1" width="74px" height="75px" style="shape-rendering:geometricPrecision; text-rendering:geometricPrecision; image-rendering:optimizeQuality; fill-rule:evenodd; clip-rule:evenodd" xmlns:xlink="http://www.w3.org/1999/xlink">
<g><path style="opacity:1" fill="#f6eda0" d="M 24.5,1.5 C 31.5079,1.33371 38.5079,1.50038 45.5,2C 46.7375,2.23209 47.7375,2.73209 48.5,3.5C 40.8448,2.68954 33.1781,2.52287 25.5,3C 23.9698,4.12026 22.3032,4.95359 20.5,5.5C 20.1667,5.5 19.8333,5.5 19.5,5.5C 21.1667,4.16667 22.8333,2.83333 24.5,1.5 Z"/></g>
<g><path style="opacity:0.573" fill="#fdf8cf" d="M 34.5,-0.5 C 35.5,-0.5 36.5,-0.5 37.5,-0.5C 38.1667,0.833333 38.8333,0.833333 39.5,-0.5C 40.8333,-0.5 42.1667,-0.5 43.5,-0.5C 47.7789,0.972773 51.7789,2.97277 55.5,5.5C 54.8333,5.5 54.1667,5.5 53.5,5.5C 51.9505,4.5592 50.2838,3.89254 48.5,3.5C 47.7375,2.73209 46.7375,2.23209 45.5,2C 38.5079,1.50038 31.5079,1.33371 24.5,1.5C 27.8333,0.833333 31.1667,0.166667 34.5,-0.5 Z"/></g>
<g><path style="opacity:1" fill="#fbe575" d="M 55.5,8.5 C 55.3713,10.2161 55.038,11.8828 54.5,13.5C 51.5655,11.0998 47.5655,9.59981 42.5,9C 38.3112,8.18806 34.3112,8.35472 30.5,9.5C 29.8333,9.5 29.1667,9.5 28.5,9.5C 28.9528,8.54163 29.6195,7.7083 30.5,7C 28.8333,6.66667 27.1667,6.33333 25.5,6C 29.9532,3.56957 34.6198,3.06957 39.5,4.5C 37.8333,5.16667 36.1667,5.83333 34.5,6.5C 35.8333,6.83333 37.1667,7.16667 38.5,7.5C 42.4068,6.18884 46.4068,5.52217 50.5,5.5C 50.5,6.5 50.5,7.5 50.5,8.5C 52.1667,8.5 53.8333,8.5 55.5,8.5 Z"/></g>
<g><path style="opacity:1" fill="#f9e782" d="M 48.5,3.5 C 50.2838,3.89254 51.9505,4.5592 53.5,5.5C 54.6935,6.27187 55.6935,7.27187 56.5,8.5C 56.1667,8.5 55.8333,8.5 55.5,8.5C 53.8333,8.5 52.1667,8.5 50.5,8.5C 50.5,7.5 50.5,6.5 50.5,5.5C 46.4068,5.52217 42.4068,6.18884 38.5,7.5C 37.1667,7.16667 35.8333,6.83333 34.5,6.5C 36.1667,5.83333 37.8333,5.16667 39.5,4.5C 34.6198,3.06957 29.9532,3.56957 25.5,6C 27.1667,6.33333 28.8333,6.66667 30.5,7C 29.6195,7.7083 28.9528,8.54163 28.5,9.5C 28.1667,9.5 27.8333,9.5 27.5,9.5C 26.5,9.5 25.5,9.5 24.5,9.5C 24.762,8.02218 24.4287,6.68884 23.5,5.5C 22.0652,6.94692 21.0652,8.61359 20.5,10.5C 20.5,8.83333 20.5,7.16667 20.5,5.5C 22.3032,4.95359 23.9698,4.12026 25.5,3C 33.1781,2.52287 40.8448,2.68954 48.5,3.5 Z"/></g>
<g><path style="opacity:1" fill="#f8ea8c" d="M 19.5,5.5 C 19.8333,5.5 20.1667,5.5 20.5,5.5C 20.5,7.16667 20.5,8.83333 20.5,10.5C 18.2275,13.3976 16.7275,13.0642 16,9.5C 12.8033,13.5024 9.30326,17.1691 5.5,20.5C 6.07501,18.5887 7.07501,16.922 8.5,15.5C 10.2444,10.0904 13.911,6.75712 19.5,5.5 Z"/></g>
<g><path style="opacity:1" fill="#f7cf41" d="M 27.5,9.5 C 27.8333,9.5 28.1667,9.5 28.5,9.5C 29.1667,9.5 29.8333,9.5 30.5,9.5C 34.0419,9.18723 37.3752,9.52056 40.5,10.5C 33.8221,9.91092 27.4888,10.9109 21.5,13.5C 22.9748,11.3101 24.9748,9.97675 27.5,9.5 Z"/></g>
<g><path style="opacity:1" fill="#fedc66" d="M 30.5,9.5 C 34.3112,8.35472 38.3112,8.18806 42.5,9C 47.5655,9.59981 51.5655,11.0998 54.5,13.5C 56.4147,13.2155 58.0813,13.5489 59.5,14.5C 58.7659,15.7079 58.4326,17.0413 58.5,18.5C 57.5,18.5 56.5,18.5 55.5,18.5C 51.5065,14.0025 46.5065,11.3358 40.5,10.5C 37.3752,9.52056 34.0419,9.18723 30.5,9.5 Z"/></g>
<g><path style="opacity:1" fill="#ecab12" d="M 40.5,10.5 C 42.0764,11.1429 43.4097,12.1429 44.5,13.5C 35.6398,11.0797 27.6398,12.5797 20.5,18C 19.2068,18.49 17.8734,18.6567 16.5,18.5C 17.8968,16.6207 19.5635,14.9541 21.5,13.5C 27.4888,10.9109 33.8221,9.91092 40.5,10.5 Z"/></g>
<g><path style="opacity:1" fill="#f7a313" d="M 44.5,13.5 C 45.1667,13.5 45.5,13.8333 45.5,14.5C 45.67,15.8221 45.3366,16.9887 44.5,18C 41.8333,18 39.1667,18 36.5,18C 35.7476,18.6708 35.4142,19.5041 35.5,20.5C 35.5,21.1667 35.5,21.8333 35.5,22.5C 34.5269,24.9479 34.1936,27.6146 34.5,30.5C 28.8795,29.0631 25.5462,31.0631 24.5,36.5C 24.5,37.1667 24.5,37.8333 24.5,38.5C 23.5318,40.6074 23.1984,42.9407 23.5,45.5C 22.5,44.8333 21.5,44.1667 20.5,43.5C 19.2031,41.3066 19.2031,38.9732 20.5,36.5C 23.468,34.2979 25.1346,31.2979 25.5,27.5C 26.5,27.5 27.5,27.5 28.5,27.5C 28.5,26.1667 28.5,24.8333 28.5,23.5C 29.8333,23.5 31.1667,23.5 32.5,23.5C 32.2148,21.712 32.5481,20.0453 33.5,18.5C 38.8788,14.9704 38.2121,13.4704 31.5,14C 29.3563,14.7921 28.023,16.2921 27.5,18.5C 24.0901,18.4571 20.7568,18.9571 17.5,20C 16.6198,21.3561 16.2865,22.8561 16.5,24.5C 15.2329,26.0389 14.2329,27.7056 13.5,29.5C 13.9674,25.6948 14.9674,22.0281 16.5,18.5C 17.8734,18.6567 19.2068,18.49 20.5,18C 27.6398,12.5797 35.6398,11.0797 44.5,13.5 Z"/></g>
<g><path style="opacity:0.859" fill="#fdefbe" d="M 53.5,5.5 C 54.1667,5.5 54.8333,5.5 55.5,5.5C 59.1235,7.9507 62.6235,10.6174 66,13.5C 68.3448,17.1885 69.8448,21.1885 70.5,25.5C 69.8333,24.8333 69.1667,24.1667 68.5,23.5C 67.6597,21.1475 66.3264,19.1475 64.5,17.5C 64.762,16.0222 64.4287,14.6888 63.5,13.5C 61.107,11.7512 58.7736,10.0846 56.5,8.5C 55.6935,7.27187 54.6935,6.27187 53.5,5.5 Z"/></g>
<g><path style="opacity:1" fill="#f5d872" d="M 55.5,8.5 C 55.8333,8.5 56.1667,8.5 56.5,8.5C 58.7736,10.0846 61.107,11.7512 63.5,13.5C 64.4287,14.6888 64.762,16.0222 64.5,17.5C 63.0209,16.241 61.3542,15.241 59.5,14.5C 58.0813,13.5489 56.4147,13.2155 54.5,13.5C 55.038,11.8828 55.3713,10.2161 55.5,8.5 Z"/></g>
<g><path style="opacity:1" fill="#fbe770" d="M 27.5,9.5 C 24.9748,9.97675 22.9748,11.3101 21.5,13.5C 12.8872,14.6787 9.22056,19.6787 10.5,28.5C 10.1667,28.5 9.83333,28.5 9.5,28.5C 8.21009,29.0577 7.37675,30.0577 7,31.5C 6.66667,30.8333 6.33333,30.1667 6,29.5C 4.25049,31.2573 3.08383,33.2573 2.5,35.5C 2.70381,32.4824 3.03714,29.4824 3.5,26.5C 4.62977,24.6854 5.29644,22.6854 5.5,20.5C 9.30326,17.1691 12.8033,13.5024 16,9.5C 16.7275,13.0642 18.2275,13.3976 20.5,10.5C 21.0652,8.61359 22.0652,6.94692 23.5,5.5C 24.4287,6.68884 24.762,8.02218 24.5,9.5C 25.5,9.5 26.5,9.5 27.5,9.5 Z"/></g>
<g><path style="opacity:1" fill="#fddc5b" d="M 21.5,13.5 C 19.5635,14.9541 17.8968,16.6207 16.5,18.5C 14.9256,18.9371 13.7589,19.9371 13,21.5C 12.6097,24.1042 11.7763,26.4375 10.5,28.5C 9.22056,19.6787 12.8872,14.6787 21.5,13.5 Z"/></g>
<g><path style="opacity:1" fill="#fd9d07" d="M 25.5,27.5 C 22.5178,23.7572 23.1845,20.7572 27.5,18.5C 28.023,16.2921 29.3563,14.7921 31.5,14C 38.2121,13.4704 38.8788,14.9704 33.5,18.5C 32.5481,20.0453 32.2148,21.712 32.5,23.5C 31.1667,23.5 29.8333,23.5 28.5,23.5C 28.5,24.8333 28.5,26.1667 28.5,27.5C 27.5,27.5 26.5,27.5 25.5,27.5 Z"/></g>
<g><path style="opacity:1" fill="#f9c649" d="M 59.5,14.5 C 61.3542,15.241 63.0209,16.241 64.5,17.5C 66.3264,19.1475 67.6597,21.1475 68.5,23.5C 68.5,24.8333 68.5,26.1667 68.5,27.5C 67.8333,26.5 67.1667,25.5 66.5,24.5C 65.1642,21.4247 62.9975,20.7581 60,22.5C 58.3007,21.2956 56.8007,19.9622 55.5,18.5C 56.5,18.5 57.5,18.5 58.5,18.5C 58.4326,17.0413 58.7659,15.7079 59.5,14.5 Z"/></g>
<g><path style="opacity:1" fill="#fbba22" d="M 45.5,14.5 C 49.7104,16.371 53.3771,19.0376 56.5,22.5C 53.4507,22.9445 50.4507,23.9445 47.5,25.5C 46.5,25.1667 45.8333,24.5 45.5,23.5C 45.5858,22.5041 45.2524,21.6708 44.5,21C 41.4725,19.6427 38.4725,19.4761 35.5,20.5C 35.4142,19.5041 35.7476,18.6708 36.5,18C 39.1667,18 41.8333,18 44.5,18C 45.3366,16.9887 45.67,15.8221 45.5,14.5 Z"/></g>
<g><path style="opacity:1" fill="#eeb936" d="M 45.5,23.5 C 44.609,22.8902 43.609,22.5569 42.5,22.5C 41.8333,22.5 41.1667,22.5 40.5,22.5C 38.9504,21.2801 37.2837,21.2801 35.5,22.5C 35.5,21.8333 35.5,21.1667 35.5,20.5C 38.4725,19.4761 41.4725,19.6427 44.5,21C 45.2524,21.6708 45.5858,22.5041 45.5,23.5 Z"/></g>
<g><path style="opacity:1" fill="#fac239" d="M 40.5,10.5 C 46.5065,11.3358 51.5065,14.0025 55.5,18.5C 56.8007,19.9622 58.3007,21.2956 60,22.5C 62.9975,20.7581 65.1642,21.4247 66.5,24.5C 65.2502,24.5774 64.4169,25.244 64,26.5C 63.8267,32.0158 63.3267,37.3491 62.5,42.5C 62.5,41.5 62.5,40.5 62.5,39.5C 62.8866,34.9197 62.0532,30.5864 60,26.5C 58.5886,28.6504 57.7553,30.9837 57.5,33.5C 56.5,33.5 55.5,33.5 54.5,33.5C 53.5346,29.5404 51.2013,26.8737 47.5,25.5C 50.4507,23.9445 53.4507,22.9445 56.5,22.5C 53.3771,19.0376 49.7104,16.371 45.5,14.5C 45.5,13.8333 45.1667,13.5 44.5,13.5C 43.4097,12.1429 42.0764,11.1429 40.5,10.5 Z"/></g>
<g><path style="opacity:1" fill="#f3e293" d="M 8.5,15.5 C 7.07501,16.922 6.07501,18.5887 5.5,20.5C 5.29644,22.6854 4.62977,24.6854 3.5,26.5C 2.73209,27.2625 2.23209,28.2625 2,29.5C 1.50074,34.4889 1.33407,39.4889 1.5,44.5C 0.348301,39.0154 0.181634,33.3487 1,27.5C 3.25566,24.5637 4.58899,21.2304 5,17.5C 5.81595,16.1772 6.98261,15.5106 8.5,15.5 Z"/></g>
<g><path style="opacity:1" fill="#f0d779" d="M 40.5,22.5 C 41.1667,22.5 41.8333,22.5 42.5,22.5C 43.8333,24.1667 45.1667,25.8333 46.5,27.5C 46.1667,27.5 45.8333,27.5 45.5,27.5C 45.1667,27.5 44.8333,27.5 44.5,27.5C 43.1667,25.8333 41.8333,24.1667 40.5,22.5 Z"/></g>
<g><path style="opacity:1" fill="#f5c372" d="M 40.5,22.5 C 39.1779,22.33 38.0113,22.6634 37,23.5C 36.5026,26.146 36.3359,28.8127 36.5,31.5C 36.1667,31.5 35.8333,31.5 35.5,31.5C 35.5,28.5 35.5,25.5 35.5,22.5C 37.2837,21.2801 38.9504,21.2801 40.5,22.5 Z"/></g>
<g><path style="opacity:1" fill="#fa9e08" d="M 27.5,18.5 C 23.1845,20.7572 22.5178,23.7572 25.5,27.5C 25.1346,31.2979 23.468,34.2979 20.5,36.5C 19.2031,38.9732 19.2031,41.3066 20.5,43.5C 19.2718,44.0249 18.4384,45.3582 18,47.5C 17.3021,46.3094 16.4687,45.3094 15.5,44.5C 17.0177,41.4659 17.8511,38.1325 18,34.5C 18.8333,33.5 19.6667,32.5 20.5,31.5C 21.6753,32.8549 22.6753,32.6883 23.5,31C 20.8292,29.1155 18.4959,26.9488 16.5,24.5C 16.2865,22.8561 16.6198,21.3561 17.5,20C 20.7568,18.9571 24.0901,18.4571 27.5,18.5 Z"/></g>
<g><path style="opacity:1" fill="#e9ca76" d="M 68.5,23.5 C 69.1667,24.1667 69.8333,24.8333 70.5,25.5C 70.5,26.8333 70.5,28.1667 70.5,29.5C 69.8333,28.8333 69.1667,28.1667 68.5,27.5C 68.5,26.1667 68.5,24.8333 68.5,23.5 Z"/></g>
<g><path style="opacity:1" fill="#fd9d03" d="M 16.5,24.5 C 18.4959,26.9488 20.8292,29.1155 23.5,31C 22.6753,32.6883 21.6753,32.8549 20.5,31.5C 19.6667,32.5 18.8333,33.5 18,34.5C 17.8511,38.1325 17.0177,41.4659 15.5,44.5C 14.5929,41.9416 13.5929,39.4416 12.5,37C 13.1595,34.5379 13.4928,32.0379 13.5,29.5C 14.2329,27.7056 15.2329,26.0389 16.5,24.5 Z"/></g>
<g><path style="opacity:1" fill="#fce98a" d="M 46.5,27.5 C 47.5,27.5 48.5,27.5 49.5,27.5C 49.634,29.2915 49.3007,30.9582 48.5,32.5C 48.1667,32.5 47.8333,32.5 47.5,32.5C 47.634,30.7085 47.3007,29.0418 46.5,27.5 Z"/></g>
<g><path style="opacity:1" fill="#fccc41" d="M 62.5,39.5 C 60.901,39.2322 59.5676,39.5655 58.5,40.5C 58.1667,40.5 57.8333,40.5 57.5,40.5C 57.539,37.911 56.539,35.911 54.5,34.5C 54.5,34.1667 54.5,33.8333 54.5,33.5C 55.5,33.5 56.5,33.5 57.5,33.5C 57.7553,30.9837 58.5886,28.6504 60,26.5C 62.0532,30.5864 62.8866,34.9197 62.5,39.5 Z"/></g>
<g><path style="opacity:1" fill="#e9aa40" d="M 35.5,22.5 C 35.5,25.5 35.5,28.5 35.5,31.5C 33.1432,31.3367 30.8098,31.5034 28.5,32C 27.6195,32.7083 26.9528,33.5416 26.5,34.5C 26.1667,35.1667 25.8333,35.8333 25.5,36.5C 25.1667,36.5 24.8333,36.5 24.5,36.5C 25.5462,31.0631 28.8795,29.0631 34.5,30.5C 34.1936,27.6146 34.5269,24.9479 35.5,22.5 Z"/></g>
<g><path style="opacity:1" fill="#eea71a" d="M 16.5,18.5 C 14.9674,22.0281 13.9674,25.6948 13.5,29.5C 12.3128,31.7402 11.6462,34.2402 11.5,37C 12.2724,41.586 13.2724,46.086 14.5,50.5C 14.1667,50.5 13.8333,50.5 13.5,50.5C 12.8333,49.5 12.1667,48.5 11.5,47.5C 9.55583,41.2345 9.2225,34.9012 10.5,28.5C 11.7763,26.4375 12.6097,24.1042 13,21.5C 13.7589,19.9371 14.9256,18.9371 16.5,18.5 Z"/></g>
<g><path style="opacity:1" fill="#fef3b4" d="M 33.5,35.5 C 32.3065,36.2719 31.3065,37.2719 30.5,38.5C 30.1667,38.5 29.8333,38.5 29.5,38.5C 28.8166,36.8235 27.4832,36.1568 25.5,36.5C 25.8333,35.8333 26.1667,35.1667 26.5,34.5C 28.5582,33.0669 30.8915,32.4003 33.5,32.5C 33.5,33.5 33.5,34.5 33.5,35.5 Z"/></g>
<g><path style="opacity:1" fill="#ddc174" d="M 35.5,31.5 C 35.8333,31.5 36.1667,31.5 36.5,31.5C 36.5,32.8333 36.5,34.1667 36.5,35.5C 35.5,35.5 34.5,35.5 33.5,35.5C 33.5,34.5 33.5,33.5 33.5,32.5C 30.8915,32.4003 28.5582,33.0669 26.5,34.5C 26.9528,33.5416 27.6195,32.7083 28.5,32C 30.8098,31.5034 33.1432,31.3367 35.5,31.5 Z"/></g>
<g><path style="opacity:1" fill="#f3c834" d="M 42.5,22.5 C 43.609,22.5569 44.609,22.8902 45.5,23.5C 45.8333,24.5 46.5,25.1667 47.5,25.5C 51.2013,26.8737 53.5346,29.5404 54.5,33.5C 54.5,33.8333 54.5,34.1667 54.5,34.5C 52.8863,36.0746 50.8863,36.7413 48.5,36.5C 48.5,37.5 48.5,38.5 48.5,39.5C 47.1667,39.5 45.8333,39.5 44.5,39.5C 44.4208,38.0695 44.7542,36.7362 45.5,35.5C 46.9935,34.8589 47.9935,33.8589 48.5,32.5C 49.3007,30.9582 49.634,29.2915 49.5,27.5C 48.5,27.5 47.5,27.5 46.5,27.5C 45.1667,25.8333 43.8333,24.1667 42.5,22.5 Z"/></g>
<g><path style="opacity:1" fill="#f6d27f" d="M 46.5,32.5 C 45.0813,33.4511 43.4147,33.7845 41.5,33.5C 41.7947,35.7354 41.4614,37.7354 40.5,39.5C 40.5,37.1667 40.5,34.8333 40.5,32.5C 42.5,32.5 44.5,32.5 46.5,32.5 Z"/></g>
<g><path style="opacity:1" fill="#fdca39" d="M 54.5,34.5 C 56.539,35.911 57.539,37.911 57.5,40.5C 56.8501,40.1961 56.1835,39.8627 55.5,39.5C 54.2519,41.4586 52.5852,42.9586 50.5,44C 47.3874,44.7262 44.8874,46.8929 43,50.5C 41.7292,51.8825 40.2292,52.8825 38.5,53.5C 38.7214,52.2652 39.3881,51.2652 40.5,50.5C 40.1373,49.8165 39.8039,49.1499 39.5,48.5C 41.0203,45.4203 42.687,42.4203 44.5,39.5C 45.8333,39.5 47.1667,39.5 48.5,39.5C 48.5,38.5 48.5,37.5 48.5,36.5C 50.8863,36.7413 52.8863,36.0746 54.5,34.5 Z"/></g>
<g><path style="opacity:1" fill="#e9c25c" d="M 33.5,35.5 C 34.5,35.5 35.5,35.5 36.5,35.5C 36.6621,37.5273 36.4955,39.5273 36,41.5C 35.6174,42.056 35.1174,42.3893 34.5,42.5C 35.038,40.8828 35.3713,39.2161 35.5,37.5C 33.7839,37.6287 32.1172,37.962 30.5,38.5C 31.3065,37.2719 32.3065,36.2719 33.5,35.5 Z"/></g>
<g><path style="opacity:1" fill="#e6b337" d="M 34.5,42.5 C 34.5,42.8333 34.5,43.1667 34.5,43.5C 30.5,44.1667 28.8333,42.5 29.5,38.5C 29.8333,38.5 30.1667,38.5 30.5,38.5C 32.1172,37.962 33.7839,37.6287 35.5,37.5C 35.3713,39.2161 35.038,40.8828 34.5,42.5 Z"/></g>
<g><path style="opacity:1" fill="#fcf3b5" d="M 24.5,36.5 C 24.8333,36.5 25.1667,36.5 25.5,36.5C 25.8516,39.4284 26.5183,42.2617 27.5,45C 28.3317,45.6877 28.9984,45.521 29.5,44.5C 28.2463,42.3569 28.2463,40.3569 29.5,38.5C 28.8333,42.5 30.5,44.1667 34.5,43.5C 34.1568,45.4832 34.8235,46.8166 36.5,47.5C 33.6377,48.6813 30.6377,48.6813 27.5,47.5C 24.9238,45.1125 23.9238,42.1125 24.5,38.5C 24.5,37.8333 24.5,37.1667 24.5,36.5 Z"/></g>
<g><path style="opacity:1" fill="#fef5d0" d="M 25.5,36.5 C 27.4832,36.1568 28.8166,36.8235 29.5,38.5C 28.2463,40.3569 28.2463,42.3569 29.5,44.5C 28.9984,45.521 28.3317,45.6877 27.5,45C 26.5183,42.2617 25.8516,39.4284 25.5,36.5 Z"/></g>
<g><path style="opacity:1" fill="#fdf1be" d="M 40.5,22.5 C 41.8333,24.1667 43.1667,25.8333 44.5,27.5C 42.6064,26.9524 40.9397,25.9524 39.5,24.5C 38.3861,25.723 38.2195,27.0563 39,28.5C 40.7542,30.25 42.9208,30.9167 45.5,30.5C 45.5,29.5 45.5,28.5 45.5,27.5C 45.8333,27.5 46.1667,27.5 46.5,27.5C 47.3007,29.0418 47.634,30.7085 47.5,32.5C 47.1667,32.5 46.8333,32.5 46.5,32.5C 44.5,32.5 42.5,32.5 40.5,32.5C 40.5,34.8333 40.5,37.1667 40.5,39.5C 38.6921,40.9179 38.0254,42.9179 38.5,45.5C 38.1667,46.5 37.5,47.1667 36.5,47.5C 34.8235,46.8166 34.1568,45.4832 34.5,43.5C 34.5,43.1667 34.5,42.8333 34.5,42.5C 35.1174,42.3893 35.6174,42.056 36,41.5C 36.4955,39.5273 36.6621,37.5273 36.5,35.5C 36.5,34.1667 36.5,32.8333 36.5,31.5C 36.3359,28.8127 36.5026,26.146 37,23.5C 38.0113,22.6634 39.1779,22.33 40.5,22.5 Z"/></g>
<g><path style="opacity:1" fill="#f3f9e0" d="M 44.5,27.5 C 44.8333,27.5 45.1667,27.5 45.5,27.5C 45.5,28.5 45.5,29.5 45.5,30.5C 42.9208,30.9167 40.7542,30.25 39,28.5C 38.2195,27.0563 38.3861,25.723 39.5,24.5C 40.9397,25.9524 42.6064,26.9524 44.5,27.5 Z"/></g>
<g><path style="opacity:1" fill="#fbd357" d="M 9.5,28.5 C 8.2572,33.6687 8.2572,38.8354 9.5,44C 7.80134,46.7607 6.46801,49.594 5.5,52.5C 5.57298,50.9731 4.90632,49.9731 3.5,49.5C 2.77052,44.8696 2.43718,40.2029 2.5,35.5C 3.08383,33.2573 4.25049,31.2573 6,29.5C 6.33333,30.1667 6.66667,30.8333 7,31.5C 7.37675,30.0577 8.21009,29.0577 9.5,28.5 Z"/></g>
<g><path style="opacity:1" fill="#fef9a6" d="M 40.5,39.5 C 40.5,41.1667 40.5,42.8333 40.5,44.5C 39.8333,44.8333 39.1667,45.1667 38.5,45.5C 38.0254,42.9179 38.6921,40.9179 40.5,39.5 Z"/></g>
<g><path style="opacity:1" fill="#eebf43" d="M 46.5,32.5 C 46.8333,32.5 47.1667,32.5 47.5,32.5C 47.8333,32.5 48.1667,32.5 48.5,32.5C 47.9935,33.8589 46.9935,34.8589 45.5,35.5C 44.7542,36.7362 44.4208,38.0695 44.5,39.5C 42.687,42.4203 41.0203,45.4203 39.5,48.5C 39.1667,48.5 38.8333,48.5 38.5,48.5C 39.6005,47.3951 40.2671,46.0618 40.5,44.5C 40.5,42.8333 40.5,41.1667 40.5,39.5C 41.4614,37.7354 41.7947,35.7354 41.5,33.5C 43.4147,33.7845 45.0813,33.4511 46.5,32.5 Z"/></g>
<g><path style="opacity:1" fill="#edd276" d="M 3.5,26.5 C 3.03714,29.4824 2.70381,32.4824 2.5,35.5C 2.43718,40.2029 2.77052,44.8696 3.5,49.5C 2.06873,48.2196 1.40206,46.5529 1.5,44.5C 1.33407,39.4889 1.50074,34.4889 2,29.5C 2.23209,28.2625 2.73209,27.2625 3.5,26.5 Z"/></g>
<g><path style="opacity:1" fill="#fccf53" d="M 62.5,39.5 C 62.5,40.5 62.5,41.5 62.5,42.5C 62.5,43.1667 62.5,43.8333 62.5,44.5C 61.5894,46.751 60.256,48.751 58.5,50.5C 58.5,47.8333 58.5,45.1667 58.5,42.5C 58.5,41.8333 58.5,41.1667 58.5,40.5C 59.5676,39.5655 60.901,39.2322 62.5,39.5 Z"/></g>
<g><path style="opacity:1" fill="#f1b43d" d="M 66.5,24.5 C 67.1667,25.5 67.8333,26.5 68.5,27.5C 69.1667,28.1667 69.8333,28.8333 70.5,29.5C 71.8333,33.8333 71.8333,38.1667 70.5,42.5C 69.8333,43.5 69.1667,44.5 68.5,45.5C 68.6658,40.8215 68.4992,36.1548 68,31.5C 67.8038,29.7139 66.9705,28.3805 65.5,27.5C 64.6705,32.8025 64.1705,38.1358 64,43.5C 63.6174,44.056 63.1174,44.3893 62.5,44.5C 62.5,43.8333 62.5,43.1667 62.5,42.5C 63.3267,37.3491 63.8267,32.0158 64,26.5C 64.4169,25.244 65.2502,24.5774 66.5,24.5 Z"/></g>
<g><path style="opacity:1" fill="#fcd545" d="M 58.5,42.5 C 58.5,45.1667 58.5,47.8333 58.5,50.5C 57.8333,52.1667 57.1667,53.8333 56.5,55.5C 53.2545,56.4448 50.5879,58.1115 48.5,60.5C 49.9418,59.1805 50.6085,57.5138 50.5,55.5C 51.5,55.5 52.5,55.5 53.5,55.5C 53.0713,50.5758 50.738,49.4091 46.5,52C 43.677,53.742 41.677,55.5754 40.5,57.5C 40.33,56.1779 40.6634,55.0113 41.5,54C 46.5378,49.1544 52.2045,45.3211 58.5,42.5 Z"/></g>
<g><path style="opacity:1" fill="#fbaa1b" d="M 68.5,45.5 C 65.3754,48.7866 63.7087,52.7866 63.5,57.5C 62.6431,58.4252 61.6431,59.0919 60.5,59.5C 57.5,59.8333 56.1667,58.5 56.5,55.5C 57.1667,53.8333 57.8333,52.1667 58.5,50.5C 60.256,48.751 61.5894,46.751 62.5,44.5C 63.1174,44.3893 63.6174,44.056 64,43.5C 64.1705,38.1358 64.6705,32.8025 65.5,27.5C 66.9705,28.3805 67.8038,29.7139 68,31.5C 68.4992,36.1548 68.6658,40.8215 68.5,45.5 Z"/></g>
<g><path style="opacity:1" fill="#efb744" d="M 24.5,38.5 C 23.9238,42.1125 24.9238,45.1125 27.5,47.5C 27.8333,48.1667 28.1667,48.8333 28.5,49.5C 28.1667,49.5 27.8333,49.5 27.5,49.5C 25.2273,49.0432 23.894,47.7099 23.5,45.5C 23.1984,42.9407 23.5318,40.6074 24.5,38.5 Z"/></g>
<g><path style="opacity:0.427" fill="#fceabf" d="M 70.5,25.5 C 71.9182,28.0204 72.9182,30.6871 73.5,33.5C 73.5,35.1667 73.5,36.8333 73.5,38.5C 72.8045,43.8129 71.6378,49.1463 70,54.5C 64.8216,61.3442 58.6549,67.1775 51.5,72C 49.5273,72.4955 47.5273,72.6621 45.5,72.5C 43.8333,72.5 42.1667,72.5 40.5,72.5C 42.2646,71.5386 44.2646,71.2053 46.5,71.5C 49.3126,71.9754 51.3126,70.9754 52.5,68.5C 54.636,67.3472 56.636,66.0138 58.5,64.5C 62.1961,61.4641 65.1961,57.7974 67.5,53.5C 69.3185,50.1558 70.3185,46.4891 70.5,42.5C 71.8333,38.1667 71.8333,33.8333 70.5,29.5C 70.5,28.1667 70.5,26.8333 70.5,25.5 Z"/></g>
<g><path style="opacity:1" fill="#fcc340" d="M 9.5,28.5 C 9.83333,28.5 10.1667,28.5 10.5,28.5C 9.2225,34.9012 9.55583,41.2345 11.5,47.5C 11.7852,49.288 11.4519,50.9547 10.5,52.5C 9.57451,53.6405 8.74117,53.6405 8,52.5C 7.51722,53.448 7.35055,54.448 7.5,55.5C 6.83333,55.5 6.16667,55.5 5.5,55.5C 5.5,54.5 5.5,53.5 5.5,52.5C 6.46801,49.594 7.80134,46.7607 9.5,44C 8.2572,38.8354 8.2572,33.6687 9.5,28.5 Z"/></g>
<g><path style="opacity:1" fill="#fba811" d="M 13.5,29.5 C 13.4928,32.0379 13.1595,34.5379 12.5,37C 13.5929,39.4416 14.5929,41.9416 15.5,44.5C 16.4687,45.3094 17.3021,46.3094 18,47.5C 18.4384,45.3582 19.2718,44.0249 20.5,43.5C 21.5,44.1667 22.5,44.8333 23.5,45.5C 23.894,47.7099 25.2273,49.0432 27.5,49.5C 27.4142,50.4959 27.7476,51.3292 28.5,52C 23.2732,55.6823 18.6065,55.1823 14.5,50.5C 13.2724,46.086 12.2724,41.586 11.5,37C 11.6462,34.2402 12.3128,31.7402 13.5,29.5 Z"/></g>
<g><path style="opacity:1" fill="#ecc863" d="M 40.5,44.5 C 40.2671,46.0618 39.6005,47.3951 38.5,48.5C 35.272,49.4137 31.9387,49.7471 28.5,49.5C 28.1667,48.8333 27.8333,48.1667 27.5,47.5C 30.6377,48.6813 33.6377,48.6813 36.5,47.5C 37.5,47.1667 38.1667,46.5 38.5,45.5C 39.1667,45.1667 39.8333,44.8333 40.5,44.5 Z"/></g>
<g><path style="opacity:1" fill="#dfb761" d="M 70.5,42.5 C 70.3185,46.4891 69.3185,50.1558 67.5,53.5C 67.5751,50.7938 67.9084,48.1272 68.5,45.5C 69.1667,44.5 69.8333,43.5 70.5,42.5 Z"/></g>
<g><path style="opacity:1" fill="#fdf7c9" d="M 24.5,1.5 C 22.8333,2.83333 21.1667,4.16667 19.5,5.5C 13.911,6.75712 10.2444,10.0904 8.5,15.5C 6.98261,15.5106 5.81595,16.1772 5,17.5C 4.58899,21.2304 3.25566,24.5637 1,27.5C 0.181634,33.3487 0.348301,39.0154 1.5,44.5C 1.40206,46.5529 2.06873,48.2196 3.5,49.5C 3.59495,51.7857 4.26162,53.7857 5.5,55.5C 5.74973,57.674 6.74973,59.3406 8.5,60.5C 11.6283,63.9696 15.2949,66.6362 19.5,68.5C 20.1667,69.5 20.8333,70.5 21.5,71.5C 18.8544,70.5134 16.1878,69.5134 13.5,68.5C 11.1667,65.5 8.5,62.8333 5.5,60.5C 2.98221,56.6802 0.982207,52.6802 -0.5,48.5C -0.5,40.5 -0.5,32.5 -0.5,24.5C 0.458367,24.0472 1.2917,23.3805 2,22.5C 2.43786,19.624 3.43786,16.9573 5,14.5C 8.16667,12.6667 10.6667,10.1667 12.5,7C 15.8904,3.80432 19.8904,1.97099 24.5,1.5 Z"/></g>
<g><path style="opacity:1" fill="#e4c868" d="M 3.5,49.5 C 4.90632,49.9731 5.57298,50.9731 5.5,52.5C 5.5,53.5 5.5,54.5 5.5,55.5C 4.26162,53.7857 3.59495,51.7857 3.5,49.5 Z"/></g>
<g><path style="opacity:1" fill="#fbd84c" d="M 48.5,60.5 C 47.391,60.5569 46.391,60.8902 45.5,61.5C 42.1501,61.665 38.8168,61.4983 35.5,61C 34.1667,60.3333 34.1667,59.6667 35.5,59C 37.3817,58.8019 39.0484,58.3019 40.5,57.5C 41.677,55.5754 43.677,53.742 46.5,52C 50.738,49.4091 53.0713,50.5758 53.5,55.5C 52.5,55.5 51.5,55.5 50.5,55.5C 50.6085,57.5138 49.9418,59.1805 48.5,60.5 Z"/></g>
<g><path style="opacity:1" fill="#e8a736" d="M 68.5,45.5 C 67.9084,48.1272 67.5751,50.7938 67.5,53.5C 65.1961,57.7974 62.1961,61.4641 58.5,64.5C 59.1667,62.8333 59.8333,61.1667 60.5,59.5C 61.6431,59.0919 62.6431,58.4252 63.5,57.5C 63.7087,52.7866 65.3754,48.7866 68.5,45.5 Z"/></g>
<g><path style="opacity:1" fill="#fdd03e" d="M 57.5,40.5 C 57.8333,40.5 58.1667,40.5 58.5,40.5C 58.5,41.1667 58.5,41.8333 58.5,42.5C 52.2045,45.3211 46.5378,49.1544 41.5,54C 40.6634,55.0113 40.33,56.1779 40.5,57.5C 39.0484,58.3019 37.3817,58.8019 35.5,59C 34.1667,59.6667 34.1667,60.3333 35.5,61C 38.8168,61.4983 42.1501,61.665 45.5,61.5C 44.7375,62.2679 43.7375,62.7679 42.5,63C 38.1794,63.499 33.8461,63.6657 29.5,63.5C 28.8592,62.5178 28.1925,61.5178 27.5,60.5C 29.578,58.0136 32.2447,57.0136 35.5,57.5C 35.5,56.1667 35.5,54.8333 35.5,53.5C 36.5,53.5 37.5,53.5 38.5,53.5C 40.2292,52.8825 41.7292,51.8825 43,50.5C 44.8874,46.8929 47.3874,44.7262 50.5,44C 52.5852,42.9586 54.2519,41.4586 55.5,39.5C 56.1835,39.8627 56.8501,40.1961 57.5,40.5 Z"/></g>
<g><path style="opacity:1" fill="#f9bb31" d="M 11.5,47.5 C 12.1667,48.5 12.8333,49.5 13.5,50.5C 13.3874,53.0488 14.0541,55.3821 15.5,57.5C 13.1391,59.1299 13.1391,60.7966 15.5,62.5C 16.5,63.8333 17.5,65.1667 18.5,66.5C 15.1667,64.1667 11.8333,61.8333 8.5,59.5C 8.76781,57.901 8.43448,56.5676 7.5,55.5C 7.35055,54.448 7.51722,53.448 8,52.5C 8.74117,53.6405 9.57451,53.6405 10.5,52.5C 11.4519,50.9547 11.7852,49.288 11.5,47.5 Z"/></g>
<g><path style="opacity:1" fill="#fcb31f" d="M 27.5,49.5 C 27.8333,49.5 28.1667,49.5 28.5,49.5C 29.287,51.1042 30.6203,51.7709 32.5,51.5C 32.5792,52.9305 32.2458,54.2638 31.5,55.5C 28.7762,56.9191 26.1095,57.5858 23.5,57.5C 23.1667,58 22.8333,58.5 22.5,59C 23.0556,60.0111 23.7222,60.8444 24.5,61.5C 21.2613,61.5871 18.2613,60.9205 15.5,59.5C 15.5,60.5 15.5,61.5 15.5,62.5C 13.1391,60.7966 13.1391,59.1299 15.5,57.5C 14.0541,55.3821 13.3874,53.0488 13.5,50.5C 13.8333,50.5 14.1667,50.5 14.5,50.5C 18.6065,55.1823 23.2732,55.6823 28.5,52C 27.7476,51.3292 27.4142,50.4959 27.5,49.5 Z"/></g>
<g><path style="opacity:1" fill="#efd781" d="M 5.5,55.5 C 6.16667,55.5 6.83333,55.5 7.5,55.5C 8.43448,56.5676 8.76781,57.901 8.5,59.5C 8.5,59.8333 8.5,60.1667 8.5,60.5C 6.74973,59.3406 5.74973,57.674 5.5,55.5 Z"/></g>
<g><path style="opacity:1" fill="#e5b756" d="M 8.5,60.5 C 8.5,60.1667 8.5,59.8333 8.5,59.5C 11.8333,61.8333 15.1667,64.1667 18.5,66.5C 21.1473,66.9287 23.1473,68.2621 24.5,70.5C 22.8333,69.8333 21.1667,69.1667 19.5,68.5C 15.2949,66.6362 11.6283,63.9696 8.5,60.5 Z"/></g>
<g><path style="opacity:1" fill="#f9c12f" d="M 38.5,48.5 C 38.8333,48.5 39.1667,48.5 39.5,48.5C 39.8039,49.1499 40.1373,49.8165 40.5,50.5C 39.3881,51.2652 38.7214,52.2652 38.5,53.5C 37.5,53.5 36.5,53.5 35.5,53.5C 35.5,54.8333 35.5,56.1667 35.5,57.5C 32.2447,57.0136 29.578,58.0136 27.5,60.5C 28.1925,61.5178 28.8592,62.5178 29.5,63.5C 27.597,63.2041 25.9303,62.5375 24.5,61.5C 23.7222,60.8444 23.0556,60.0111 22.5,59C 22.8333,58.5 23.1667,58 23.5,57.5C 26.1095,57.5858 28.7762,56.9191 31.5,55.5C 32.2458,54.2638 32.5792,52.9305 32.5,51.5C 30.6203,51.7709 29.287,51.1042 28.5,49.5C 31.9387,49.7471 35.272,49.4137 38.5,48.5 Z"/></g>
<g><path style="opacity:1" fill="#f2ac18" d="M 56.5,55.5 C 56.1667,58.5 57.5,59.8333 60.5,59.5C 59.8333,61.1667 59.1667,62.8333 58.5,64.5C 57.8333,64.5 57.1667,64.5 56.5,64.5C 56.7852,62.712 56.4519,61.0453 55.5,59.5C 47.2562,64.3803 38.5895,65.7136 29.5,63.5C 33.8461,63.6657 38.1794,63.499 42.5,63C 43.7375,62.7679 44.7375,62.2679 45.5,61.5C 46.391,60.8902 47.391,60.5569 48.5,60.5C 50.5879,58.1115 53.2545,56.4448 56.5,55.5 Z"/></g>
<g><path style="opacity:1" fill="#f8a20e" d="M 24.5,61.5 C 25.9303,62.5375 27.597,63.2041 29.5,63.5C 38.5895,65.7136 47.2562,64.3803 55.5,59.5C 56.4519,61.0453 56.7852,62.712 56.5,64.5C 46.6605,69.8861 35.9939,71.8861 24.5,70.5C 23.1473,68.2621 21.1473,66.9287 18.5,66.5C 17.5,65.1667 16.5,63.8333 15.5,62.5C 15.5,61.5 15.5,60.5 15.5,59.5C 18.2613,60.9205 21.2613,61.5871 24.5,61.5 Z"/></g>
<g><path style="opacity:1" fill="#e1a435" d="M 56.5,64.5 C 57.1667,64.5 57.8333,64.5 58.5,64.5C 56.636,66.0138 54.636,67.3472 52.5,68.5C 50.4561,69.5082 48.4561,70.5082 46.5,71.5C 44.2646,71.2053 42.2646,71.5386 40.5,72.5C 34.916,72.7451 29.5826,72.0784 24.5,70.5C 35.9939,71.8861 46.6605,69.8861 56.5,64.5 Z"/></g>
<g><path style="opacity:1" fill="#fcde9e" d="M 52.5,68.5 C 51.3126,70.9754 49.3126,71.9754 46.5,71.5C 48.4561,70.5082 50.4561,69.5082 52.5,68.5 Z"/></g>
<g><path style="opacity:1" fill="#f9e9ac" d="M 19.5,68.5 C 21.1667,69.1667 22.8333,69.8333 24.5,70.5C 29.5826,72.0784 34.916,72.7451 40.5,72.5C 38.0521,73.4731 35.3854,73.8064 32.5,73.5C 28.5863,73.8887 24.9196,73.2221 21.5,71.5C 20.8333,70.5 20.1667,69.5 19.5,68.5 Z"/></g>
<g><path style="opacity:0.094" fill="#fef5dc" d="M 40.5,72.5 C 42.1667,72.5 43.8333,72.5 45.5,72.5C 45.1667,73.1667 44.8333,73.8333 44.5,74.5C 40.5,74.5 36.5,74.5 32.5,74.5C 32.5,74.1667 32.5,73.8333 32.5,73.5C 35.3854,73.8064 38.0521,73.4731 40.5,72.5 Z"/></g>
</svg>
